<svg width="50" height="50" viewBox="0 0 50 50" xmlns="http://www.w3.org/2000/svg">
<path d="M0 0V50H50V0H0ZM32.2554 25.2902C32.1725 25.6219 32.0066 25.8706 31.8408 26.1194L20.398 37.4793C20.0663 37.8109 19.6517 37.9768 19.2371 37.9768C18.8226 37.9768 18.408 37.8109 18.0763 37.4793C17.7446 37.1476 17.5788 36.733 17.5788 36.3184C17.5788 35.9038 17.7446 35.4892 18.0763 35.1575L28.2753 24.9585L18.1592 14.7595C17.4959 14.0962 17.4959 13.1012 18.1592 12.4378C18.8226 11.7745 19.8176 11.7745 20.4809 12.4378L31.8408 23.7977C32.0066 23.9635 32.0896 24.1294 32.1725 24.2952C32.1725 24.3781 32.1725 24.3781 32.2554 24.461C32.2554 24.5439 32.2554 24.5439 32.3383 24.6269C32.3383 24.7098 32.3383 24.8756 32.3383 24.9585C32.3383 25.0415 32.2554 25.2073 32.2554 25.2902Z"/>
</svg>
