<svg width="50" height="50" viewBox="0 0 50 50" xmlns="http://www.w3.org/2000/svg">
<path d="M50 50L50 8.23355e-07L-3.54778e-06 5.19449e-06L8.23355e-07 50L50 50ZM17.7446 24.7098C17.8275 24.3781 17.9934 24.1294 18.1592 23.8806L29.602 12.5207C29.9337 12.1891 30.3483 12.0232 30.7628 12.0232C31.1774 12.0232 31.592 12.1891 31.9237 12.5207C32.2554 12.8524 32.4212 13.267 32.4212 13.6816C32.4212 14.0962 32.2554 14.5108 31.9237 14.8425L21.7247 25.0415L31.8408 35.2405C32.5041 35.9038 32.5041 36.8988 31.8408 37.5622C31.1774 38.2255 30.1824 38.2255 29.5191 37.5622L18.1592 26.2023C17.9934 26.0365 17.9104 25.8707 17.8275 25.7048C17.8275 25.6219 17.8275 25.6219 17.7446 25.539C17.7446 25.4561 17.7446 25.4561 17.6617 25.3731C17.6617 25.2902 17.6617 25.1244 17.6617 25.0415C17.6617 24.9585 17.7446 24.7927 17.7446 24.7098Z"/>
</svg>
