<svg width="24" height="24" viewBox="0 0 24 24"  xmlns="http://www.w3.org/2000/svg">
<path d="M12 24C18.6142 24 24 18.6071 24 11.9842C23.9685 5.3929 18.6142 0 12 0C5.38583 0 0 5.3929 0 12.0158C0 18.6386 5.38583 24 12 24ZM12 1.89225C17.5748 1.89225 22.1102 6.43364 22.1102 12.0158C22.1102 17.5979 17.5748 22.1393 12 22.1393C6.4252 22.1078 1.88976 17.5979 1.88976 12.0158C1.88976 6.43364 6.4252 1.89225 12 1.89225Z" />
<path d="M10.4566 14.0023L14.4881 17.156C14.6455 17.2822 14.866 17.3453 15.055 17.3453C15.3385 17.3453 15.6219 17.2191 15.7794 16.9984C16.0944 16.5884 16.0314 15.9892 15.6219 15.6738L11.9684 12.8039V6.3387C11.9684 5.8341 11.5589 5.39258 11.0235 5.39258C10.5196 5.39258 10.0786 5.80256 10.0786 6.3387V13.2454C10.1101 13.5608 10.2361 13.8131 10.4566 14.0023Z" />
</svg>
