<svg width="200" height="106" viewBox="0 0 200 106" fill="none" xmlns="http://www.w3.org/2000/svg">
<path d="M0 56.8123C0 55.0536 0.17331 52.9431 1.38648 51.5361C2.77296 49.9532 4.85268 49.7773 6.41248 49.7773H26.5165C28.7695 49.7773 32.9289 49.7773 35.3553 53.4707C36.9151 55.933 37.2617 59.2746 37.2617 62.0886C37.2617 63.8473 37.0884 68.2442 35.8752 71.2341C34.4887 74.5757 31.8891 75.8068 29.1161 75.8068H27.5563V75.9827L38.1282 87.0628H23.7435L16.6378 77.3897C15.2513 75.6309 13.8648 74.0481 13.8648 72.1134V71.2341C13.8648 68.7718 16.1178 67.0131 19.2374 67.0131H21.1438C22.1837 67.0131 23.5702 66.8372 24.4367 65.9578C24.9567 65.2543 25.3033 63.8473 25.3033 62.7921C25.3033 60.6816 24.61 59.9781 24.4367 59.6263C23.5702 58.747 22.1837 58.747 21.1438 58.747H14.3847C13.6915 58.747 12.9983 58.747 12.4783 59.2746C11.7851 59.9781 11.7851 60.6816 11.7851 61.561V86.711H0V56.8123Z" fill="#134A86"/>
<path d="M49.7399 58.7491V72.8191C49.7399 75.4572 50.0866 76.8642 50.7798 77.7436C51.993 79.3265 53.8994 79.5023 55.1126 79.5023H57.019C57.8855 79.5023 58.4055 79.3265 58.7521 78.9747C59.272 78.4471 59.272 77.7436 59.272 77.216V58.7491H69.6706V81.2611C69.6706 82.844 69.4973 84.4268 67.9375 85.8338C66.551 87.065 64.6446 87.065 63.4314 87.065H50.7798C46.7937 87.065 44.3673 85.8338 42.9809 84.6027C40.0346 82.1405 39.5146 78.4471 39.5146 74.0502V58.5732H49.7399V58.7491Z" fill="#134A86"/>
<path d="M72.4433 79.3254H87.6946C87.8679 79.3254 88.2146 79.1495 88.3879 79.1495C88.5612 78.9736 88.7345 78.7978 88.7345 78.6219C88.7345 78.2701 88.3879 78.0943 88.2146 77.9184C87.8679 77.7425 87.348 77.5666 85.095 76.8631L79.0291 74.9285C76.4295 74.0491 74.3497 72.9939 73.3099 71.2352C72.4433 69.8282 72.27 67.8935 72.27 66.4865C72.27 64.7278 72.6166 62.969 73.6565 61.3862C75.043 59.0998 77.296 58.748 80.069 58.748H98.6132V65.9589H83.5352C83.1886 65.9589 82.6686 65.9589 82.322 65.9589C81.9754 65.9589 81.8021 66.1348 81.8021 66.4865C81.8021 66.8383 82.1487 67.0142 82.322 67.19C83.5352 67.5418 83.1886 67.5418 84.4017 68.0694L91.5074 70.5317C94.4537 71.5869 96.5334 72.4663 97.9199 74.4009C99.3064 76.3355 99.3064 78.6219 99.3064 79.853C99.3064 81.9635 98.9598 84.4258 97.0534 85.8328C95.4936 87.0639 93.9338 87.2398 92.5473 87.2398H72.4433V79.3254Z" fill="#134A86"/>
<path d="M144.715 86.8883C140.555 86.8883 137.089 86.8883 134.836 83.1949C133.623 81.0844 133.449 78.0946 133.449 72.9942C133.449 67.8938 133.103 63.6728 135.702 61.0347C138.302 58.3966 143.675 58.2207 148.874 58.2207C154.42 58.2207 158.233 58.3966 160.313 60.1553C162.912 62.2658 163.259 66.4868 163.259 69.6526C163.259 71.4113 163.085 73.5218 161.526 74.7529C160.659 75.4564 159.793 75.6323 158.753 75.6323H143.501C143.501 76.3358 143.675 77.3911 144.021 77.9187C144.888 79.3257 146.794 79.3257 148.701 79.3257H162.219V86.8883H144.715ZM151.3 69.1249C152.86 69.1249 153.033 68.2456 153.033 67.5421C153.033 66.8386 152.687 65.9592 151.127 65.6074C150.261 65.4316 148.874 65.4316 148.354 65.4316C147.141 65.4316 145.581 65.4316 144.715 65.9592C143.675 66.4868 143.501 67.7179 143.675 69.1249H151.3Z" fill="#134A86"/>
<path d="M165.857 49.6035H176.256V87.0648H165.857V49.6035Z" fill="#134A86"/>
<path d="M193.761 86.889C191.681 86.889 188.042 86.889 185.095 84.9543C182.842 83.3715 181.629 80.5575 181.629 78.0952V65.9599H177.643V58.749H181.629V49.6035H192.028V58.749H200V65.9599H192.028V72.4672C192.028 74.5777 192.374 76.6882 193.761 78.0952C195.147 79.3264 197.054 79.5022 198.267 79.5022H199.827V87.0648H193.761V86.889Z" fill="#134A86"/>
<path d="M129.636 63.3211C127.037 58.9243 122.704 58.7484 119.758 58.7484H112.305V52.5928C111.439 53.648 110.226 54.5274 108.666 54.8791C106.759 55.2309 103.813 55.2309 102.427 53.648C102.253 53.4721 102.08 53.2963 101.907 53.1204V81.9639C101.907 83.3709 102.253 84.4261 103.12 85.4814C104.506 87.0642 106.239 87.0642 107.626 87.0642H119.931C122.704 87.0642 127.383 86.5366 129.81 82.3156C131.023 80.381 131.716 77.567 131.716 72.8184C131.543 69.8285 131.369 66.1351 129.636 63.3211ZM120.278 77.3911C119.758 78.6222 118.718 79.3257 116.638 79.3257H114.558C114.038 79.3257 113.172 79.3257 112.652 78.7981C112.132 78.2705 112.132 77.2152 112.132 76.6876V65.9593H116.811C117.678 65.9593 119.411 66.1351 120.278 68.0698C120.451 68.5974 120.971 69.8285 120.971 72.4666C120.971 75.4565 120.451 76.6876 120.278 77.3911Z" fill="#134A86"/>
<path fill-rule="evenodd" clip-rule="evenodd" d="M99.6539 0.00633447C96.0144 -0.16954 93.0681 3.34796 92.8948 6.68958C92.7215 8.80007 93.4147 10.9106 93.2414 13.1969C92.8948 19.1767 88.2154 24.9806 82.3229 26.3876C79.03 27.0911 75.9104 26.0358 72.7908 25.6841C62.3922 23.2218 60.8324 38.347 69.4979 39.2264C75.5638 39.5782 78.3367 33.0708 84.4026 33.5984C90.6418 33.5984 95.6678 35.8848 98.2674 42.0404C99.4806 44.8544 100.174 48.5478 102.254 50.8341C103.64 52.417 106.586 52.5929 108.493 52.0653C113.172 51.01 115.598 44.5027 112.132 40.9852C110.226 39.0505 107.453 38.347 105.2 36.7642C99.6539 33.0708 97.0542 25.5082 99.4806 19.0008C100.001 17.5938 100.694 16.3627 101.734 15.1316C103.987 12.4934 106.586 10.2071 106.76 7.04133C106.933 2.64446 103.64 0.358084 99.6539 0.00633447Z" fill="white"/>
<path d="M3.2931 102.894C2.42655 102.894 1.90662 102.542 1.73331 102.19C1.21338 101.662 1.21338 100.959 1.21338 100.255C1.21338 99.552 1.21338 98.6726 1.90662 97.9691C2.25324 97.6174 2.77317 97.2656 3.63972 97.2656H5.54613V97.7932H3.46641C2.59986 97.7932 2.07993 98.3209 1.90662 98.8485C1.73331 99.2003 1.73331 100.08 1.73331 100.255C1.73331 100.607 1.73331 101.311 1.90662 101.662C2.25324 102.366 2.94648 102.542 3.46641 102.542H5.37282V103.069H3.2931V102.894Z" fill="#134A86"/>
<path d="M12.3051 97.7923C12.825 97.2646 13.6915 97.2646 14.3848 97.2646C15.078 97.2646 15.9446 97.2646 16.4645 97.7923C16.9844 98.3199 17.1577 99.3751 17.1577 100.079C17.1577 101.31 16.8111 102.013 16.4645 102.365C15.9446 102.893 14.9047 103.069 14.3848 103.069C13.8648 103.069 12.9983 103.069 12.3051 102.365C11.9584 102.013 11.6118 101.31 11.6118 100.079C11.6118 99.551 11.7851 98.4958 12.3051 97.7923ZM12.6517 102.013C13.1716 102.541 13.8648 102.541 14.3848 102.541C14.9047 102.541 15.598 102.541 16.1179 102.013C16.6378 101.486 16.6378 100.606 16.6378 100.255C16.6378 99.7269 16.6378 98.8475 16.1179 98.3199C15.7713 97.7923 14.9047 97.7923 14.3848 97.7923C13.8648 97.7923 13.1716 97.7923 12.6517 98.3199C12.1317 98.8475 12.1317 99.7269 12.1317 100.255C12.3051 100.606 12.3051 101.486 12.6517 102.013Z" fill="#134A86"/>
<path d="M23.9175 97.9682C23.9175 97.7923 23.9175 97.6164 24.0908 97.4405C24.2641 97.2647 24.4374 97.2646 24.6107 97.2646H26.5171C27.0371 97.2646 27.3837 97.2646 27.7303 97.6164C27.9036 97.7923 28.0769 98.144 28.0769 98.8475V102.717H27.7303V99.0234C27.7303 98.4958 27.7303 98.3199 27.557 97.9682C27.3837 97.6164 27.0371 97.6164 26.6904 97.6164H24.784H24.6107V97.7923V102.717H24.0908V97.9682H23.9175Z" fill="#134A86"/>
<path d="M36.9156 102.189L37.0889 102.365L37.2622 102.189L38.9954 97.2646H39.5153L37.6089 102.365C37.4356 102.717 37.2622 102.893 37.0889 102.893C36.9156 102.893 36.7423 102.893 36.569 102.365L34.6626 97.2646H35.1825L36.9156 102.189Z" fill="#134A86"/>
<path d="M47.6608 102.893C47.1409 102.893 46.6209 102.717 46.2743 102.189C45.9277 101.662 45.7544 100.958 45.7544 100.079C45.7544 99.3751 45.7544 98.3199 46.4476 97.7923C46.9676 97.4405 47.6608 97.2646 48.1807 97.2646C48.5274 97.2646 49.2206 97.2646 49.5672 97.6164C49.7405 97.7923 50.4338 98.144 50.4338 99.3751C50.4338 99.551 50.4338 99.9028 50.2605 100.079C50.0871 100.255 49.7405 100.255 49.5672 100.255H46.2743C46.2743 100.606 46.2743 101.134 46.4476 101.31C46.6209 101.837 46.9676 102.365 47.6608 102.365H50.2605V102.893H47.6608ZM49.5672 99.7269C49.7405 99.7269 49.7405 99.3751 49.7405 99.3751C49.7405 98.8475 49.5672 98.4958 49.3939 98.3199C49.0473 97.7923 48.5274 97.7923 48.0074 97.7923C47.4875 97.7923 46.7943 97.7923 46.4476 98.4958C46.2743 98.8475 46.2743 99.1993 46.2743 99.9028H49.5672V99.7269Z" fill="#134A86"/>
<path d="M58.7526 104.651H58.2327L59.0992 102.893L56.8462 97.2646H57.1928L59.2725 102.189L61.5256 97.2646H62.0455L58.7526 104.651Z" fill="#134A86"/>
<path d="M68.8041 97.7923C69.324 97.2646 70.1906 97.2646 70.8838 97.2646C71.577 97.2646 72.4436 97.2646 72.9635 97.7923C73.4835 98.3199 73.6568 99.3751 73.6568 100.079C73.6568 101.31 73.3101 102.013 72.9635 102.365C72.4436 102.893 71.4037 103.069 70.8838 103.069C70.3639 103.069 69.4973 103.069 68.8041 102.365C68.4575 102.013 68.1108 101.31 68.1108 100.079C68.1108 99.551 68.2842 98.4958 68.8041 97.7923ZM69.1507 102.013C69.6706 102.541 70.3639 102.541 70.8838 102.541C71.4037 102.541 72.097 102.541 72.6169 102.013C73.1368 101.486 73.1368 100.606 73.1368 100.255C73.1368 99.7269 73.1368 98.8475 72.6169 98.3199C72.2703 97.7923 71.4037 97.7923 70.8838 97.7923C70.3639 97.7923 69.6706 97.7923 69.1507 98.3199C68.6308 98.8475 68.6308 99.7269 68.6308 100.255C68.6308 100.606 68.6308 101.486 69.1507 102.013Z" fill="#134A86"/>
<path d="M80.417 99.1993C80.417 98.6717 80.417 98.144 80.9369 97.7923C81.1102 97.6164 81.6302 97.2646 82.3234 97.2646H82.67V97.7923H82.3234C81.9768 97.7923 81.6302 97.7923 81.2835 98.144C81.1102 98.4958 80.9369 98.8475 80.9369 99.3751V102.893H80.417V99.1993Z" fill="#134A86"/>
<path d="M107.28 102.893C106.76 102.893 106.24 102.717 105.893 102.189C105.547 101.662 105.374 100.958 105.374 100.079C105.374 99.3751 105.374 98.3199 106.067 97.7923C106.587 97.4405 107.28 97.2646 107.8 97.2646C108.147 97.2646 108.84 97.2646 109.186 97.6164C109.36 97.7923 110.053 98.144 110.053 99.3751C110.053 99.551 110.053 99.9028 109.88 100.079C109.706 100.255 109.533 100.255 109.36 100.255H106.067C106.067 100.606 106.067 101.134 106.24 101.31C106.413 101.837 106.76 102.365 107.453 102.365H110.226V102.893H107.28ZM109.36 99.7269C109.533 99.7269 109.533 99.3751 109.533 99.3751C109.533 98.8475 109.36 98.4958 109.186 98.3199C108.84 97.7923 108.32 97.7923 107.8 97.7923C107.28 97.7923 106.587 97.7923 106.24 98.4958C106.067 98.8475 106.067 99.1993 105.893 99.9028H109.36V99.7269Z" fill="#134A86"/>
<path d="M120.798 104.649V102.891H118.718C118.198 102.891 117.679 102.715 117.159 102.187C116.812 101.659 116.812 100.78 116.812 100.252C116.812 99.7248 116.812 98.6696 117.332 97.9661C117.505 97.6143 118.025 97.4385 118.718 97.4385H120.452C120.798 97.4385 120.971 97.6143 121.145 97.7902C121.318 97.9661 121.318 98.3178 121.318 98.4937V105.001H120.798V104.649ZM120.798 98.142C120.798 98.142 120.798 97.9661 120.625 97.7902C120.452 97.7902 120.452 97.7902 120.278 97.7902H118.892C118.198 97.7902 117.679 97.9661 117.505 98.6696C117.332 99.0213 117.332 99.7248 117.332 100.077C117.332 100.428 117.332 100.956 117.505 101.308C117.505 101.484 117.852 102.363 118.718 102.363H120.798V98.142Z" fill="#134A86"/>
<path d="M132.409 102.715C132.236 102.891 131.89 102.891 131.543 102.891H129.983C129.463 102.891 128.943 102.891 128.597 102.539C128.25 102.187 128.25 101.659 128.25 101.308V97.4385H128.77V101.132C128.77 101.659 128.943 102.011 128.943 102.187C129.117 102.539 129.636 102.539 129.983 102.539H131.716C131.89 102.539 132.063 102.539 132.063 102.363C132.236 102.187 132.236 102.187 132.236 102.011V97.4385H132.756V102.011C132.583 102.187 132.583 102.539 132.409 102.715Z" fill="#134A86"/>
<path d="M139.688 96.3851V95.6816H140.208V96.3851H139.688ZM139.688 97.2645H140.208V102.893H139.688V97.2645Z" fill="#134A86"/>
<path d="M147.661 104.651H147.141V97.9682C147.141 97.6164 147.314 97.4405 147.487 97.4405C147.661 97.2647 148.007 97.2646 148.18 97.2646H149.567C149.914 97.2646 150.607 97.2647 151.127 97.9682C151.647 98.4958 151.647 99.3751 151.647 100.079C151.647 100.782 151.647 101.486 151.127 102.189C150.607 102.893 150.087 103.069 149.22 103.069H147.661V104.651ZM149.567 102.365C150.087 102.365 150.607 102.189 150.78 101.662C150.953 101.31 151.127 100.782 151.127 99.9028C151.127 99.1993 151.127 98.6716 150.953 98.4958C150.607 97.9681 150.087 97.6164 149.567 97.6164H148.007H147.834V97.7923V102.189H149.567V102.365Z" fill="#134A86"/>
<path d="M158.406 98.3199C158.406 98.144 158.406 97.7923 158.579 97.6164C158.752 97.2646 159.099 97.2646 159.272 97.2646H164.472C164.992 97.2646 165.338 97.2646 165.685 97.6164C166.031 97.9681 166.031 98.4958 166.031 98.8475V102.893H165.511V98.8475C165.511 98.6716 165.511 98.3199 165.338 97.9682C165.165 97.7923 164.818 97.6164 164.472 97.6164H162.565V102.717H162.045V97.6164H159.446C159.272 97.6164 159.272 97.6164 159.099 97.7923C159.099 97.7923 159.099 97.9681 159.099 98.144V102.893H158.579V98.3199H158.406Z" fill="#134A86"/>
<path d="M174.524 102.893C174.004 102.893 173.484 102.717 173.137 102.189C172.791 101.662 172.617 100.958 172.617 100.079C172.617 99.3751 172.617 98.3199 173.31 97.7923C173.83 97.4405 174.524 97.2646 175.044 97.2646C175.39 97.2646 176.083 97.2646 176.43 97.6164C176.603 97.7923 177.297 98.144 177.297 99.3751C177.297 99.551 177.297 99.9028 177.123 100.079C176.95 100.255 176.777 100.255 176.603 100.255H173.31C173.31 100.606 173.31 101.134 173.484 101.31C173.657 101.837 174.004 102.365 174.697 102.365H177.47V102.893H174.524ZM176.603 99.7269C176.777 99.7269 176.777 99.3751 176.777 99.3751C176.777 98.8475 176.603 98.4958 176.43 98.3199C176.083 97.7923 175.563 97.7923 175.044 97.7923C174.524 97.7923 173.83 97.7923 173.484 98.4958C173.31 98.8475 173.31 99.1993 173.137 99.9028H176.603V99.7269Z" fill="#134A86"/>
<path d="M184.229 97.9682C184.229 97.7923 184.229 97.6164 184.403 97.4405C184.576 97.2647 184.749 97.2646 184.923 97.2646H186.829C187.349 97.2646 187.696 97.2646 188.042 97.6164C188.216 97.7923 188.389 98.144 188.389 98.8475V102.717H187.869V99.0234C187.869 98.4958 187.869 98.3199 187.696 97.9682C187.522 97.6164 187.176 97.6164 186.829 97.6164H184.923H184.749V97.7923V102.717H184.229V97.9682Z" fill="#134A86"/>
<path d="M197.574 102.893C197.054 102.893 196.534 102.893 196.188 102.541C195.841 102.189 195.841 101.661 195.841 100.958V97.7922H195.148V97.2646H195.841V95.5059H196.361V97.2646H197.921V97.7922H196.361V100.958C196.361 101.486 196.361 102.013 196.708 102.365C196.881 102.365 197.054 102.541 197.748 102.541H198.094V103.068H197.574V102.893Z" fill="#134A86"/>
</svg>
