<svg width="43" height="45" viewBox="0 0 43 45" fill="none" xmlns="http://www.w3.org/2000/svg">
<path fill-rule="evenodd" clip-rule="evenodd" d="M30.8337 0.00544691C27.6968 -0.145785 25.1574 2.87885 25.008 5.75226C24.8586 7.56704 25.4561 9.38182 25.3068 11.3478C25.008 16.4897 20.9748 21.4804 15.896 22.6902C13.0579 23.2952 10.3691 22.3878 7.68035 22.0853C-1.28222 19.9681 -2.62661 32.974 4.8422 33.7302C10.0704 34.0326 12.4604 28.437 17.6886 28.8907C23.0661 28.8907 27.398 30.8568 29.6387 36.1499C30.6843 38.5696 31.2818 41.7454 33.0743 43.7115C34.2693 45.0726 36.8087 45.2238 38.4519 44.7701C42.485 43.8627 44.5763 38.2671 41.5888 35.2425C39.9456 33.5789 37.5556 32.974 35.6137 31.6129C30.8337 28.437 28.593 21.9341 30.6843 16.3385C31.1324 15.1286 31.7299 14.07 32.6262 13.0114C34.5681 10.7429 36.8087 8.7769 36.9581 6.05472C37.1075 2.27393 34.2693 0.307911 30.8337 0.00544691Z" fill="white"/>
</svg>
