<svg width="24" height="24" viewBox="0 0 24 24" xmlns="http://www.w3.org/2000/svg">
<path d="M19.0263 14.5825C18.4852 14.0098 17.8167 13.7235 17.1164 13.7235C16.416 13.7235 15.7476 14.0098 15.2064 14.5825L13.8058 15.9824C13.7739 15.9824 13.7739 15.9506 13.7421 15.9506L13.6148 15.8869C13.4556 15.7915 13.2965 15.7279 13.1691 15.6324C11.7367 14.7098 10.4315 13.5326 9.19006 12.0054C8.64891 11.3373 8.26692 10.7646 7.98043 10.1601C8.29875 9.87381 8.58524 9.58747 8.87174 9.30113L9.38106 8.76026C10.527 7.6149 10.527 6.05594 9.38106 4.87877L8.01226 3.5107C7.8531 3.35162 7.72577 3.22436 7.5666 3.06528C7.28011 2.74713 6.96178 2.42897 6.64346 2.14263C6.10231 1.60177 5.46566 1.31543 4.76534 1.31543C4.06503 1.31543 3.42838 1.60177 2.85539 2.14263L1.16827 3.82886C0.499784 4.56061 0.0859611 5.41963 0.022296 6.3741C-0.105034 7.86943 0.340621 9.26931 0.658946 10.1601C1.48659 12.3554 2.69623 14.3916 4.47885 16.5551C6.67529 19.1639 9.31739 21.232 12.3415 22.6955C13.5193 23.2363 15.0791 23.9045 16.798 23.9999C16.8935 23.9999 17.0209 23.9999 17.1164 23.9999C18.3578 23.9999 19.3765 23.5545 20.2041 22.6637L20.2678 22.6C20.4906 22.3455 20.7453 22.091 21.0318 21.8364L21.0954 21.7728C21.3183 21.5819 21.5411 21.3592 21.7321 21.1365C22.2732 20.5638 22.5597 19.8957 22.5597 19.1958C22.5597 18.4958 22.2732 17.8277 21.7002 17.2868L19.0263 14.5825ZM6.16597 4.46517L7.98043 6.31047C8.17142 6.50136 8.26692 6.69225 8.26692 6.85133C8.26692 7.01041 8.17142 7.2013 7.98043 7.3922L7.8531 7.51946C7.7576 7.6149 7.6621 7.71035 7.5666 7.8058C7.12095 8.25122 6.73896 8.633 6.35697 8.98297L6.2933 9.0466V9.07842C5.75215 9.68291 5.94314 10.2874 6.00681 10.4783L6.03864 10.5419C6.3888 11.401 6.89812 12.2282 7.69393 13.2144L7.72577 13.2463C9.1264 14.9643 10.5589 16.2687 12.1823 17.2868C12.4051 17.4141 12.628 17.5414 12.819 17.6368C12.9781 17.7322 13.1373 17.7959 13.2965 17.8913L13.3283 17.9231C13.3601 17.9231 13.3601 17.955 13.392 17.955C13.9649 18.2413 14.5379 18.1458 14.9836 17.6686L16.6707 15.9824C16.7662 15.8869 16.989 15.6961 17.18 15.6961C17.4029 15.6961 17.5938 15.8869 17.6575 15.9506L20.3951 18.6867C20.7453 19.0367 20.7771 19.323 20.4906 19.673H20.3951L20.3633 19.8321C20.2359 19.9911 20.0768 20.1184 19.9495 20.2457L19.7266 20.4047C19.4083 20.7229 19.0581 21.0411 18.7717 21.391C18.326 21.8683 17.8167 22.091 17.1482 22.091C17.0845 22.091 17.0209 22.091 16.9572 22.091C15.5566 21.9955 14.2196 21.4547 13.2328 20.9774C10.4634 19.6412 8.04409 17.7641 6.03864 15.3461C4.38335 13.3417 3.26921 11.4964 2.53707 9.52384C2.09141 8.34666 1.93225 7.42401 1.99591 6.56499C2.02774 6.05594 2.21874 5.64234 2.60073 5.29237L4.28785 3.60615C4.47885 3.44707 4.66984 3.35162 4.82901 3.35162C5.02 3.35162 5.211 3.47889 5.33833 3.63796C5.59299 3.86067 5.84765 4.14701 6.16597 4.46517Z" />
<path d="M12.8826 6.21562C14.0922 6.40651 15.2382 7.011 16.1295 7.90184C17.0208 8.79267 17.5938 9.90622 17.8166 11.147C17.8803 11.6243 18.2941 11.9742 18.8034 11.9742C18.8671 11.9742 18.8989 11.9742 18.9626 11.9742C19.5038 11.8788 19.8539 11.3697 19.7584 10.8289C19.4719 9.20628 18.7079 7.71095 17.5301 6.53377C16.3523 5.3566 14.8562 4.59302 13.2327 4.30668C12.6916 4.21124 12.1823 4.56121 12.0868 5.10207C12.0549 5.3566 12.0868 5.64294 12.2459 5.83383C12.4051 6.02472 12.6279 6.15198 12.8826 6.21562Z"/>
<path d="M23.9923 10.6057C23.5466 7.96497 22.2733 5.54699 20.3633 3.63806C18.4534 1.72913 16.066 0.48832 13.4239 0.0110867C13.1692 -0.0207288 12.9145 0.0110867 12.6917 0.170164C12.4689 0.329242 12.3415 0.551951 12.2779 0.806475C12.1824 1.34734 12.5325 1.85639 13.0737 1.95183C15.302 2.33362 17.3393 3.38353 18.9627 5.00613C20.5862 6.62872 21.6366 8.66491 22.0186 10.892C22.0823 11.3692 22.4961 11.7192 22.9736 11.7192C23.0373 11.7192 23.0691 11.7192 23.1328 11.7192C23.3874 11.6874 23.6103 11.5283 23.7694 11.3374C23.9604 11.1147 24.0241 10.8602 23.9923 10.6057Z"/>
</svg>
