<svg width="30" height="30" viewBox="0 0 30 30" xmlns="http://www.w3.org/2000/svg">
<path id="fig" d="M15 0C6.71631 0 0 6.71631 0 15C0 23.2837 6.71631 30 15 30C23.2837 30 30 23.2837 30 15C30 6.71631 23.2837 0 15 0ZM20.1855 15.7983L12.6855 20.4858C12.5317 20.5811 12.3633 20.625 12.1875 20.625C12.0337 20.625 11.8726 20.5884 11.7334 20.5078C11.4331 20.3394 11.25 20.0317 11.25 19.6875V10.3125C11.25 9.96826 11.4331 9.66064 11.7334 9.49219C12.0337 9.32373 12.3926 9.33838 12.6855 9.51416L20.1855 14.2017C20.4565 14.3701 20.625 14.6704 20.625 15C20.625 15.3223 20.4565 15.6226 20.1855 15.7983Z"/>
</svg>
